<svg width="78" height="34" viewBox="0 0 78 34" fill="none" xmlns="http://www.w3.org/2000/svg">
<rect x="1.00006" y="1.00006" width="32" height="32" rx="16" fill="black" stroke="white" stroke-width="1.2"/>
<g clip-path="url(#clip0_284_101)">
<path fill-rule="evenodd" clip-rule="evenodd" d="M13.7018 9.04812C12.8504 9.08698 12.2687 9.22184 11.759 9.42069C11.2333 9.62412 10.7876 9.89841 10.3418 10.343C9.89841 10.7876 9.62412 11.2344 9.42069 11.7601C9.22184 12.2687 9.08698 12.8504 9.04812 13.7018C9.00926 14.5544 9.00012 14.8276 9.00012 17.0001C9.00012 19.1727 9.00926 19.4458 9.04812 20.2984C9.08698 21.1498 9.22184 21.7316 9.42069 22.2413C9.62412 22.767 9.89841 23.2127 10.343 23.6584C10.7876 24.1018 11.2344 24.3761 11.7601 24.5807C12.2687 24.7784 12.8504 24.9121 13.7018 24.9521C14.5556 24.991 14.8276 25.0001 17.0001 25.0001C19.1727 25.0001 19.4458 24.991 20.2984 24.9521C21.1498 24.9133 21.7316 24.7784 22.2413 24.5807C22.767 24.375 23.2127 24.1018 23.6584 23.6573C24.1018 23.2127 24.3761 22.7658 24.5807 22.2401C24.7784 21.7316 24.9121 21.1498 24.9521 20.2984C24.991 19.4447 25.0001 19.1727 25.0001 17.0001C25.0001 14.8276 24.991 14.5544 24.9521 13.7018C24.9133 12.8504 24.7784 12.2687 24.5807 11.759C24.3796 11.2251 24.0645 10.7414 23.6573 10.3418C23.2127 9.89841 22.7658 9.62412 22.2401 9.42069C21.7316 9.22184 21.1498 9.08698 20.2984 9.04812C19.4458 9.00926 19.1727 9.00012 17.0001 9.00012C14.8276 9.00012 14.5544 9.00926 13.7018 9.04812ZM12.8916 17.0001C12.8916 18.0898 13.3244 19.1348 14.0949 19.9053C14.8654 20.6758 15.9105 21.1087 17.0001 21.1087C18.0898 21.1087 19.1348 20.6758 19.9053 19.9053C20.6758 19.1348 21.1087 18.0898 21.1087 17.0001C21.1087 15.9105 20.6758 14.8654 19.9053 14.0949C19.1348 13.3244 18.0898 12.8916 17.0001 12.8916C15.9105 12.8916 14.8654 13.3244 14.0949 14.0949C13.3244 14.8654 12.8916 15.9105 12.8916 17.0001ZM17.0001 19.6664C16.293 19.6664 15.6148 19.3855 15.1148 18.8855C14.6147 18.3854 14.3338 17.7073 14.3338 17.0001C14.3338 16.293 14.6147 15.6148 15.1148 15.1148C15.6148 14.6147 16.293 14.3338 17.0001 14.3338C17.7073 14.3338 18.3854 14.6147 18.8855 15.1148C19.3855 15.6148 19.6664 16.293 19.6664 17.0001C19.6664 17.7073 19.3855 18.3854 18.8855 18.8855C18.3854 19.3855 17.7073 19.6664 17.0001 19.6664ZM22.6001 12.4401C22.6001 12.5662 22.5753 12.691 22.527 12.8075C22.4788 12.924 22.4081 13.0298 22.3189 13.1189C22.2298 13.2081 22.124 13.2788 22.0075 13.327C21.891 13.3753 21.7662 13.4001 21.6401 13.4001C21.5141 13.4001 21.3892 13.3753 21.2727 13.327C21.1563 13.2788 21.0504 13.2081 20.9613 13.1189C20.8722 13.0298 20.8014 12.924 20.7532 12.8075C20.705 12.691 20.6801 12.5662 20.6801 12.4401C20.6801 12.1855 20.7813 11.9413 20.9613 11.7613C21.1413 11.5813 21.3855 11.4801 21.6401 11.4801C21.8947 11.4801 22.1389 11.5813 22.3189 11.7613C22.499 11.9413 22.6001 12.1855 22.6001 12.4401Z" fill="white"/>
</g>
<rect x="44.9998" y="1.00006" width="32" height="32" rx="16" stroke="white" stroke-width="1.2"/>
<path d="M68 8C68.5304 8 69.0391 8.21071 69.4142 8.58579C69.7893 8.96086 70 9.46957 70 10V24C70 24.5304 69.7893 25.0391 69.4142 25.4142C69.0391 25.7893 68.5304 26 68 26H54C53.4696 26 52.9609 25.7893 52.5858 25.4142C52.2107 25.0391 52 24.5304 52 24V10C52 9.46957 52.2107 8.96086 52.5858 8.58579C52.9609 8.21071 53.4696 8 54 8H68ZM67.5 23.5V18.2C67.5 17.3354 67.1565 16.5062 66.5452 15.8948C65.9338 15.2835 65.1046 14.94 64.24 14.94C63.39 14.94 62.4 15.46 61.92 16.24V15.13H59.13V23.5H61.92V18.57C61.92 17.8 62.54 17.17 63.31 17.17C63.6813 17.17 64.0374 17.3175 64.2999 17.5801C64.5625 17.8426 64.71 18.1987 64.71 18.57V23.5H67.5ZM55.88 13.56C56.3256 13.56 56.7529 13.383 57.0679 13.0679C57.383 12.7529 57.56 12.3256 57.56 11.88C57.56 10.95 56.81 10.19 55.88 10.19C55.4318 10.19 55.0019 10.3681 54.685 10.685C54.3681 11.0019 54.19 11.4318 54.19 11.88C54.19 12.81 54.95 13.56 55.88 13.56ZM57.27 23.5V15.13H54.5V23.5H57.27Z" fill="white"/>
<defs>
<clipPath id="clip0_284_101">
<rect width="32" height="32" fill="white" transform="translate(1.00006 1.00006)"/>
</clipPath>
</defs>
</svg>
